<svg width="24" height="25" viewBox="0 0 24 25" fill="none" xmlns="http://www.w3.org/2000/svg">
<path d="M13.8227 21.9258C16.3095 19.7061 20.7339 15.1711 20.7339 11.0095C20.7339 8.70689 19.832 6.49857 18.2266 4.87037C16.6211 3.24217 14.4437 2.32745 12.1733 2.32745C9.90294 2.32745 7.72553 3.24217 6.12012 4.87037C4.51471 6.49857 3.61279 8.70689 3.61279 11.0095C3.61279 15.1711 8.03574 19.7061 10.524 21.9258C10.9779 22.3366 11.565 22.5637 12.1733 22.5637C12.7817 22.5637 13.3688 22.3366 13.8227 21.9258V21.9258ZM9.31982 11.0095C9.31982 10.242 9.62046 9.50587 10.1556 8.96314C10.6907 8.4204 11.4165 8.1155 12.1733 8.1155C12.9301 8.1155 13.6559 8.4204 14.1911 8.96314C14.7262 9.50587 15.0269 10.242 15.0269 11.0095C15.0269 11.7771 14.7262 12.5132 14.1911 13.0559C13.6559 13.5986 12.9301 13.9035 12.1733 13.9035C11.4165 13.9035 10.6907 13.5986 10.1556 13.0559C9.62046 12.5132 9.31982 11.7771 9.31982 11.0095Z" fill="#185CFF"/>
</svg>
